M48
; DRILL file {KiCad 9.0.2} date 2026-09-17T06:43:38-0600
; FORMAT={-:-/ absolute / metric / decimal}
; #@! TF.CreationDate,2026-09-17T06:43:38-06:00
; #@! TF.GenerationSoftware,Kicad,Pcbnew,9.0.2
; #@! TF.FileFunction,NonPlated,1,2,NPTH
FMAT,2
METRIC
; #@! TA.AperFunction,NonPlated,NPTH,ComponentDrill
T1C1.700
; #@! TA.AperFunction,NonPlated,NPTH,ComponentDrill
T2C3.200
; #@! TA.AperFunction,NonPlated,NPTH,ComponentDrill
T3C4.000
%
G90
G05
T1
X54.38Y-59.58
X54.42Y-84.5
X54.42Y-109.5
X54.42Y-134.5
X64.54Y-59.58
X64.58Y-84.5
X64.58Y-109.5
X64.58Y-134.5
X79.42Y-59.5
X79.46Y-84.42
X79.46Y-109.42
X79.46Y-134.42
X89.58Y-59.5
X89.62Y-84.42
X89.62Y-109.42
X89.62Y-134.42
X104.23Y-59.54
X104.27Y-84.46
X104.27Y-109.46
X104.27Y-134.46
X114.39Y-59.54
X114.43Y-84.46
X114.43Y-109.46
X114.43Y-134.46
X129.38Y-59.58
X129.42Y-84.5
X129.42Y-109.5
X129.42Y-134.5
X139.54Y-59.58
X139.58Y-84.5
X139.58Y-109.5
X139.58Y-134.5
X154.38Y-59.58
X154.42Y-84.5
X154.42Y-109.5
X154.42Y-134.5
X164.54Y-59.58
X164.58Y-84.5
X164.58Y-109.5
X164.58Y-134.5
X179.38Y-59.58
X179.42Y-84.5
X179.42Y-109.5
X179.42Y-134.5
X189.54Y-59.58
X189.58Y-84.5
X189.58Y-109.5
X189.58Y-134.5
T2
X37.5Y-40.0
X37.5Y-155.0
X201.5Y-40.0
X201.5Y-155.0
T3
X59.46Y-59.58
X59.5Y-84.5
X59.5Y-109.5
X59.5Y-134.5
X84.5Y-59.5
X84.54Y-84.42
X84.54Y-109.42
X84.54Y-134.42
X109.31Y-59.54
X109.35Y-84.46
X109.35Y-109.46
X109.35Y-134.46
X134.46Y-59.58
X134.5Y-84.5
X134.5Y-109.5
X134.5Y-134.5
X159.46Y-59.58
X159.5Y-84.5
X159.5Y-109.5
X159.5Y-134.5
X184.46Y-59.58
X184.5Y-84.5
X184.5Y-109.5
X184.5Y-134.5
M30
