M48
; DRILL file {KiCad 9.0.2} date 2026-09-17T06:43:38-0600
; FORMAT={-:-/ absolute / metric / decimal}
; #@! TF.CreationDate,2026-09-17T06:43:38-06:00
; #@! TF.GenerationSoftware,Kicad,Pcbnew,9.0.2
; #@! TF.FileFunction,Plated,1,2,PTH
FMAT,2
METRIC
; #@! TA.AperFunction,Plated,PTH,ComponentDrill
T1C1.000
; #@! TA.AperFunction,Plated,PTH,ComponentDrill
T2C1.500
%
G90
G05
T1
X54.0Y-47.0
X57.5Y-47.0
X61.0Y-47.0
X64.5Y-47.0
X79.0Y-47.0
X82.5Y-47.0
X86.0Y-47.0
X89.5Y-47.0
X104.0Y-47.0
X107.5Y-47.0
X111.0Y-47.0
X114.5Y-47.0
X122.0Y-147.0
X129.0Y-47.0
X132.5Y-47.0
X136.0Y-47.0
X139.5Y-47.0
X154.0Y-47.0
X157.5Y-47.0
X161.0Y-47.0
X164.5Y-47.0
X179.0Y-47.0
X182.5Y-47.0
X186.0Y-47.0
X189.5Y-47.0
T2
X55.65Y-57.04
X55.69Y-81.96
X55.69Y-106.96
X55.69Y-131.96
X62.0Y-54.5
X62.04Y-79.42
X62.04Y-104.42
X62.04Y-129.42
X80.69Y-56.96
X80.73Y-81.88
X80.73Y-106.88
X80.73Y-131.88
X87.04Y-54.42
X87.08Y-79.34
X87.08Y-104.34
X87.08Y-129.34
X105.5Y-57.0
X105.54Y-81.92
X105.54Y-106.92
X105.54Y-131.92
X111.85Y-54.46
X111.89Y-79.38
X111.89Y-104.38
X111.89Y-129.38
X130.65Y-57.04
X130.69Y-81.96
X130.69Y-106.96
X130.69Y-131.96
X137.0Y-54.5
X137.04Y-79.42
X137.04Y-104.42
X137.04Y-129.42
X155.65Y-57.04
X155.69Y-81.96
X155.69Y-106.96
X155.69Y-131.96
X162.0Y-54.5
X162.04Y-79.42
X162.04Y-104.42
X162.04Y-129.42
X180.65Y-57.04
X180.69Y-81.96
X180.69Y-106.96
X180.69Y-131.96
X187.0Y-54.5
X187.04Y-79.42
X187.04Y-104.42
X187.04Y-129.42
M30
