%TF.GenerationSoftware,KiCad,Pcbnew,9.0.2*%
%TF.CreationDate,2026-09-17T06:43:18-06:00*%
%TF.ProjectId,SpamazonBoard,5370616d-617a-46f6-9e42-6f6172642e6b,R1*%
%TF.SameCoordinates,Original*%
%TF.FileFunction,Soldermask,Top*%
%TF.FilePolarity,Negative*%
%FSLAX46Y46*%
G04 Gerber Fmt 4.6, Leading zero omitted, Abs format (unit mm)*
G04 Created by KiCad (PCBNEW 9.0.2) date 2026-09-17 06:43:18*
%MOMM*%
%LPD*%
G01*
G04 APERTURE LIST*
%ADD10C,3.200000*%
%ADD11R,1.700000X1.700000*%
%ADD12C,1.700000*%
%ADD13C,4.000000*%
%ADD14C,2.200000*%
G04 APERTURE END LIST*
D10*
%TO.C,REF\u002A\u002A*%
X201500000Y-155000000D03*
%TD*%
%TO.C,REF\u002A\u002A*%
X37500000Y-155000000D03*
%TD*%
%TO.C,REF\u002A\u002A*%
X201500000Y-40000000D03*
%TD*%
%TO.C,REF\u002A\u002A*%
X37500000Y-40000000D03*
%TD*%
D11*
%TO.C,Col1*%
X161000000Y-47000000D03*
%TD*%
D12*
%TO.C,hella keys lol*%
X154380000Y-59580000D03*
D13*
X159460000Y-59580000D03*
D12*
X164540000Y-59580000D03*
D14*
X162000000Y-54500000D03*
X155650000Y-57040000D03*
%TD*%
D11*
%TO.C,Col1*%
X186000000Y-47000000D03*
%TD*%
D12*
%TO.C,hella keys lol*%
X179420000Y-134500000D03*
D13*
X184500000Y-134500000D03*
D12*
X189580000Y-134500000D03*
D14*
X187040000Y-129420000D03*
X180690000Y-131960000D03*
%TD*%
D11*
%TO.C,Col5*%
X154000000Y-47000000D03*
%TD*%
D12*
%TO.C,hella keys lol*%
X79460000Y-134420000D03*
D13*
X84540000Y-134420000D03*
D12*
X89620000Y-134420000D03*
D14*
X87080000Y-129340000D03*
X80730000Y-131880000D03*
%TD*%
D11*
%TO.C,Col1*%
X54000000Y-47000000D03*
%TD*%
%TO.C,Col1*%
X86000000Y-47000000D03*
%TD*%
D12*
%TO.C,hella keys lol*%
X179420000Y-84500000D03*
D13*
X184500000Y-84500000D03*
D12*
X189580000Y-84500000D03*
D14*
X187040000Y-79420000D03*
X180690000Y-81960000D03*
%TD*%
D11*
%TO.C,Col1*%
X89500000Y-47000000D03*
%TD*%
D12*
%TO.C,hella keys lol*%
X79460000Y-84420000D03*
D13*
X84540000Y-84420000D03*
D12*
X89620000Y-84420000D03*
D14*
X87080000Y-79340000D03*
X80730000Y-81880000D03*
%TD*%
D11*
%TO.C,Col1*%
X107500000Y-47000000D03*
%TD*%
D12*
%TO.C,hella keys lol*%
X54380000Y-59580000D03*
D13*
X59460000Y-59580000D03*
D12*
X64540000Y-59580000D03*
D14*
X62000000Y-54500000D03*
X55650000Y-57040000D03*
%TD*%
D12*
%TO.C,hella keys lol*%
X54420000Y-109500000D03*
D13*
X59500000Y-109500000D03*
D12*
X64580000Y-109500000D03*
D14*
X62040000Y-104420000D03*
X55690000Y-106960000D03*
%TD*%
D12*
%TO.C,hella keys lol*%
X179420000Y-109500000D03*
D13*
X184500000Y-109500000D03*
D12*
X189580000Y-109500000D03*
D14*
X187040000Y-104420000D03*
X180690000Y-106960000D03*
%TD*%
D12*
%TO.C,hella keys lol*%
X79460000Y-109420000D03*
D13*
X84540000Y-109420000D03*
D12*
X89620000Y-109420000D03*
D14*
X87080000Y-104340000D03*
X80730000Y-106880000D03*
%TD*%
D12*
%TO.C,hella keys lol*%
X179380000Y-59580000D03*
D13*
X184460000Y-59580000D03*
D12*
X189540000Y-59580000D03*
D14*
X187000000Y-54500000D03*
X180650000Y-57040000D03*
%TD*%
D12*
%TO.C,hella keys lol*%
X154420000Y-134500000D03*
D13*
X159500000Y-134500000D03*
D12*
X164580000Y-134500000D03*
D14*
X162040000Y-129420000D03*
X155690000Y-131960000D03*
%TD*%
D11*
%TO.C,Col1*%
X139500000Y-47000000D03*
%TD*%
%TO.C,Col1*%
X114500000Y-47000000D03*
%TD*%
D12*
%TO.C,hella keys lol*%
X104270000Y-84460000D03*
D13*
X109350000Y-84460000D03*
D12*
X114430000Y-84460000D03*
D14*
X111890000Y-79380000D03*
X105540000Y-81920000D03*
%TD*%
D11*
%TO.C,Col6*%
X179000000Y-47000000D03*
%TD*%
%TO.C,GND*%
X122000000Y-147000000D03*
%TD*%
%TO.C,Col1*%
X164500000Y-47000000D03*
%TD*%
D12*
%TO.C,hella keys lol*%
X54420000Y-84500000D03*
D13*
X59500000Y-84500000D03*
D12*
X64580000Y-84500000D03*
D14*
X62040000Y-79420000D03*
X55690000Y-81960000D03*
%TD*%
D11*
%TO.C,Col1*%
X111000000Y-47000000D03*
%TD*%
%TO.C,Col1*%
X64500000Y-47000000D03*
%TD*%
D12*
%TO.C,hella keys lol*%
X54420000Y-134500000D03*
D13*
X59500000Y-134500000D03*
D12*
X64580000Y-134500000D03*
D14*
X62040000Y-129420000D03*
X55690000Y-131960000D03*
%TD*%
D11*
%TO.C,Col1*%
X132500000Y-47000000D03*
%TD*%
%TO.C,Col1*%
X157500000Y-47000000D03*
%TD*%
D12*
%TO.C,hella keys lol*%
X104270000Y-109460000D03*
D13*
X109350000Y-109460000D03*
D12*
X114430000Y-109460000D03*
D14*
X111890000Y-104380000D03*
X105540000Y-106920000D03*
%TD*%
D11*
%TO.C,Col1*%
X61000000Y-47000000D03*
%TD*%
D12*
%TO.C,hella keys lol*%
X129420000Y-84500000D03*
D13*
X134500000Y-84500000D03*
D12*
X139580000Y-84500000D03*
D14*
X137040000Y-79420000D03*
X130690000Y-81960000D03*
%TD*%
D11*
%TO.C,Col2*%
X79000000Y-47000000D03*
%TD*%
%TO.C,Col1*%
X82500000Y-47000000D03*
%TD*%
%TO.C,Col1*%
X189500000Y-47000000D03*
%TD*%
%TO.C,Col1*%
X57500000Y-47000000D03*
%TD*%
D12*
%TO.C,hella keys lol*%
X104270000Y-134460000D03*
D13*
X109350000Y-134460000D03*
D12*
X114430000Y-134460000D03*
D14*
X111890000Y-129380000D03*
X105540000Y-131920000D03*
%TD*%
D11*
%TO.C,Col3*%
X104000000Y-47000000D03*
%TD*%
%TO.C,Col4*%
X129000000Y-47000000D03*
%TD*%
%TO.C,Col1*%
X136000000Y-47000000D03*
%TD*%
%TO.C,Col1*%
X182500000Y-47000000D03*
%TD*%
D12*
%TO.C,hella keys lol*%
X154420000Y-84500000D03*
D13*
X159500000Y-84500000D03*
D12*
X164580000Y-84500000D03*
D14*
X162040000Y-79420000D03*
X155690000Y-81960000D03*
%TD*%
D12*
%TO.C,hella keys lol*%
X129380000Y-59580000D03*
D13*
X134460000Y-59580000D03*
D12*
X139540000Y-59580000D03*
D14*
X137000000Y-54500000D03*
X130650000Y-57040000D03*
%TD*%
D12*
%TO.C,hella keys lol*%
X79420000Y-59500000D03*
D13*
X84500000Y-59500000D03*
D12*
X89580000Y-59500000D03*
D14*
X87040000Y-54420000D03*
X80690000Y-56960000D03*
%TD*%
D12*
%TO.C,hella keys lol*%
X154420000Y-109500000D03*
D13*
X159500000Y-109500000D03*
D12*
X164580000Y-109500000D03*
D14*
X162040000Y-104420000D03*
X155690000Y-106960000D03*
%TD*%
D12*
%TO.C,hella keys lol*%
X104230000Y-59540000D03*
D13*
X109310000Y-59540000D03*
D12*
X114390000Y-59540000D03*
D14*
X111850000Y-54460000D03*
X105500000Y-57000000D03*
%TD*%
D12*
%TO.C,hella keys lol*%
X129420000Y-109500000D03*
D13*
X134500000Y-109500000D03*
D12*
X139580000Y-109500000D03*
D14*
X137040000Y-104420000D03*
X130690000Y-106960000D03*
%TD*%
D12*
%TO.C,hella keys lol*%
X129420000Y-134500000D03*
D13*
X134500000Y-134500000D03*
D12*
X139580000Y-134500000D03*
D14*
X137040000Y-129420000D03*
X130690000Y-131960000D03*
%TD*%
M02*
