%TF.GenerationSoftware,KiCad,Pcbnew,9.0.2*%
%TF.CreationDate,2026-09-17T06:43:18-06:00*%
%TF.ProjectId,SpamazonBoard,5370616d-617a-46f6-9e42-6f6172642e6b,R1*%
%TF.SameCoordinates,Original*%
%TF.FileFunction,Copper,L2,Bot*%
%TF.FilePolarity,Positive*%
%FSLAX46Y46*%
G04 Gerber Fmt 4.6, Leading zero omitted, Abs format (unit mm)*
G04 Created by KiCad (PCBNEW 9.0.2) date 2026-09-17 06:43:18*
%MOMM*%
%LPD*%
G01*
G04 APERTURE LIST*
%TA.AperFunction,ComponentPad*%
%ADD10R,1.700000X1.700000*%
%TD*%
%TA.AperFunction,ComponentPad*%
%ADD11C,2.200000*%
%TD*%
%TA.AperFunction,Conductor*%
%ADD12C,0.200000*%
%TD*%
G04 APERTURE END LIST*
D10*
%TO.P,Col1,1*%
%TO.N,N/C*%
X161000000Y-47000000D03*
%TD*%
D11*
%TO.P,hella keys lol,1*%
%TO.N,N/C*%
X162000000Y-54500000D03*
%TO.P,hella keys lol,2*%
X155650000Y-57040000D03*
%TD*%
D10*
%TO.P,Col1,1*%
%TO.N,N/C*%
X186000000Y-47000000D03*
%TD*%
D11*
%TO.P,hella keys lol,1*%
%TO.N,N/C*%
X187040000Y-129420000D03*
%TO.P,hella keys lol,2*%
X180690000Y-131960000D03*
%TD*%
D10*
%TO.P,Col5,1*%
%TO.N,N/C*%
X154000000Y-47000000D03*
%TD*%
D11*
%TO.P,hella keys lol,1*%
%TO.N,N/C*%
X87080000Y-129340000D03*
%TO.P,hella keys lol,2*%
X80730000Y-131880000D03*
%TD*%
D10*
%TO.P,Col1,1*%
%TO.N,N/C*%
X54000000Y-47000000D03*
%TD*%
%TO.P,Col1,1*%
%TO.N,N/C*%
X86000000Y-47000000D03*
%TD*%
D11*
%TO.P,hella keys lol,1*%
%TO.N,N/C*%
X187040000Y-79420000D03*
%TO.P,hella keys lol,2*%
X180690000Y-81960000D03*
%TD*%
D10*
%TO.P,Col1,1*%
%TO.N,N/C*%
X89500000Y-47000000D03*
%TD*%
D11*
%TO.P,hella keys lol,1*%
%TO.N,N/C*%
X87080000Y-79340000D03*
%TO.P,hella keys lol,2*%
X80730000Y-81880000D03*
%TD*%
D10*
%TO.P,Col1,1*%
%TO.N,N/C*%
X107500000Y-47000000D03*
%TD*%
D11*
%TO.P,hella keys lol,1*%
%TO.N,N/C*%
X62000000Y-54500000D03*
%TO.P,hella keys lol,2*%
X55650000Y-57040000D03*
%TD*%
%TO.P,hella keys lol,1*%
%TO.N,N/C*%
X62040000Y-104420000D03*
%TO.P,hella keys lol,2*%
X55690000Y-106960000D03*
%TD*%
%TO.P,hella keys lol,1*%
%TO.N,N/C*%
X187040000Y-104420000D03*
%TO.P,hella keys lol,2*%
X180690000Y-106960000D03*
%TD*%
%TO.P,hella keys lol,1*%
%TO.N,N/C*%
X87080000Y-104340000D03*
%TO.P,hella keys lol,2*%
X80730000Y-106880000D03*
%TD*%
%TO.P,hella keys lol,1*%
%TO.N,N/C*%
X187000000Y-54500000D03*
%TO.P,hella keys lol,2*%
X180650000Y-57040000D03*
%TD*%
%TO.P,hella keys lol,1*%
%TO.N,N/C*%
X162040000Y-129420000D03*
%TO.P,hella keys lol,2*%
X155690000Y-131960000D03*
%TD*%
D10*
%TO.P,Col1,1*%
%TO.N,N/C*%
X139500000Y-47000000D03*
%TD*%
%TO.P,Col1,1*%
%TO.N,N/C*%
X114500000Y-47000000D03*
%TD*%
D11*
%TO.P,hella keys lol,1*%
%TO.N,N/C*%
X111890000Y-79380000D03*
%TO.P,hella keys lol,2*%
X105540000Y-81920000D03*
%TD*%
D10*
%TO.P,Col6,1*%
%TO.N,N/C*%
X179000000Y-47000000D03*
%TD*%
%TO.P,GND,1*%
%TO.N,N/C*%
X122000000Y-147000000D03*
%TD*%
%TO.P,Col1,1*%
%TO.N,N/C*%
X164500000Y-47000000D03*
%TD*%
D11*
%TO.P,hella keys lol,1*%
%TO.N,N/C*%
X62040000Y-79420000D03*
%TO.P,hella keys lol,2*%
X55690000Y-81960000D03*
%TD*%
D10*
%TO.P,Col1,1*%
%TO.N,N/C*%
X111000000Y-47000000D03*
%TD*%
%TO.P,Col1,1*%
%TO.N,N/C*%
X64500000Y-47000000D03*
%TD*%
D11*
%TO.P,hella keys lol,1*%
%TO.N,N/C*%
X62040000Y-129420000D03*
%TO.P,hella keys lol,2*%
X55690000Y-131960000D03*
%TD*%
D10*
%TO.P,Col1,1*%
%TO.N,N/C*%
X132500000Y-47000000D03*
%TD*%
%TO.P,Col1,1*%
%TO.N,N/C*%
X157500000Y-47000000D03*
%TD*%
D11*
%TO.P,hella keys lol,1*%
%TO.N,N/C*%
X111890000Y-104380000D03*
%TO.P,hella keys lol,2*%
X105540000Y-106920000D03*
%TD*%
D10*
%TO.P,Col1,1*%
%TO.N,N/C*%
X61000000Y-47000000D03*
%TD*%
D11*
%TO.P,hella keys lol,1*%
%TO.N,N/C*%
X137040000Y-79420000D03*
%TO.P,hella keys lol,2*%
X130690000Y-81960000D03*
%TD*%
D10*
%TO.P,Col2,1*%
%TO.N,N/C*%
X79000000Y-47000000D03*
%TD*%
%TO.P,Col1,1*%
%TO.N,N/C*%
X82500000Y-47000000D03*
%TD*%
%TO.P,Col1,1*%
%TO.N,N/C*%
X189500000Y-47000000D03*
%TD*%
%TO.P,Col1,1*%
%TO.N,N/C*%
X57500000Y-47000000D03*
%TD*%
D11*
%TO.P,hella keys lol,1*%
%TO.N,N/C*%
X111890000Y-129380000D03*
%TO.P,hella keys lol,2*%
X105540000Y-131920000D03*
%TD*%
D10*
%TO.P,Col3,1*%
%TO.N,N/C*%
X104000000Y-47000000D03*
%TD*%
%TO.P,Col4,1*%
%TO.N,N/C*%
X129000000Y-47000000D03*
%TD*%
%TO.P,Col1,1*%
%TO.N,N/C*%
X136000000Y-47000000D03*
%TD*%
%TO.P,Col1,1*%
%TO.N,N/C*%
X182500000Y-47000000D03*
%TD*%
D11*
%TO.P,hella keys lol,1*%
%TO.N,N/C*%
X162040000Y-79420000D03*
%TO.P,hella keys lol,2*%
X155690000Y-81960000D03*
%TD*%
%TO.P,hella keys lol,1*%
%TO.N,N/C*%
X137000000Y-54500000D03*
%TO.P,hella keys lol,2*%
X130650000Y-57040000D03*
%TD*%
%TO.P,hella keys lol,1*%
%TO.N,N/C*%
X87040000Y-54420000D03*
%TO.P,hella keys lol,2*%
X80690000Y-56960000D03*
%TD*%
%TO.P,hella keys lol,1*%
%TO.N,N/C*%
X162040000Y-104420000D03*
%TO.P,hella keys lol,2*%
X155690000Y-106960000D03*
%TD*%
%TO.P,hella keys lol,1*%
%TO.N,N/C*%
X111850000Y-54460000D03*
%TO.P,hella keys lol,2*%
X105500000Y-57000000D03*
%TD*%
%TO.P,hella keys lol,1*%
%TO.N,N/C*%
X137040000Y-104420000D03*
%TO.P,hella keys lol,2*%
X130690000Y-106960000D03*
%TD*%
%TO.P,hella keys lol,1*%
%TO.N,N/C*%
X137040000Y-129420000D03*
%TO.P,hella keys lol,2*%
X130690000Y-131960000D03*
%TD*%
D12*
%TO.N,*%
X194000000Y-122460000D02*
X187040000Y-129420000D01*
X194000000Y-47000000D02*
X194000000Y-122460000D01*
X189500000Y-47000000D02*
X194000000Y-47000000D01*
X192500000Y-98960000D02*
X187040000Y-104420000D01*
X192500000Y-49000000D02*
X192500000Y-98960000D01*
X188000000Y-49000000D02*
X192500000Y-49000000D01*
X186000000Y-47000000D02*
X188000000Y-49000000D01*
X191500000Y-74960000D02*
X187040000Y-79420000D01*
X191500000Y-50000000D02*
X191500000Y-74960000D01*
X185500000Y-50000000D02*
X191500000Y-50000000D01*
X182500000Y-47000000D02*
X185500000Y-50000000D01*
X179500000Y-47000000D02*
X187000000Y-54500000D01*
X179000000Y-47000000D02*
X179500000Y-47000000D01*
X169000000Y-122460000D02*
X162040000Y-129420000D01*
X169000000Y-47000000D02*
X169000000Y-122460000D01*
X164500000Y-47000000D02*
X169000000Y-47000000D01*
X167500000Y-50000000D02*
X167500000Y-98960000D01*
X162500000Y-50000000D02*
X167500000Y-50000000D01*
X161000000Y-48500000D02*
X162500000Y-50000000D01*
X167500000Y-98960000D02*
X162040000Y-104420000D01*
X161000000Y-47000000D02*
X161000000Y-48500000D01*
X166500000Y-74960000D02*
X162040000Y-79420000D01*
X160500000Y-51000000D02*
X166500000Y-51000000D01*
X166500000Y-51000000D02*
X166500000Y-74960000D01*
X160500000Y-50000000D02*
X160500000Y-51000000D01*
X157500000Y-47000000D02*
X160500000Y-50000000D01*
X154500000Y-47000000D02*
X162000000Y-54500000D01*
X154000000Y-47000000D02*
X154500000Y-47000000D01*
X144000000Y-47000000D02*
X144000000Y-122460000D01*
X139500000Y-47000000D02*
X144000000Y-47000000D01*
X144000000Y-122460000D02*
X137040000Y-129420000D01*
X143000000Y-50000000D02*
X143000000Y-104500000D01*
X137500000Y-50000000D02*
X143000000Y-50000000D01*
X136000000Y-48500000D02*
X137500000Y-50000000D01*
X142920000Y-104420000D02*
X137040000Y-104420000D01*
X136000000Y-47000000D02*
X136000000Y-48500000D01*
X143000000Y-104500000D02*
X142920000Y-104420000D01*
X139960000Y-76500000D02*
X137040000Y-79420000D01*
X142000000Y-76500000D02*
X139960000Y-76500000D01*
X135000000Y-51000000D02*
X142000000Y-51000000D01*
X142000000Y-51000000D02*
X142000000Y-76500000D01*
X132500000Y-48500000D02*
X135000000Y-51000000D01*
X132500000Y-47000000D02*
X132500000Y-48500000D01*
X129500000Y-47000000D02*
X137000000Y-54500000D01*
X129000000Y-47000000D02*
X129500000Y-47000000D01*
X118000000Y-129500000D02*
X117880000Y-129380000D01*
X119000000Y-129500000D02*
X118000000Y-129500000D01*
X117880000Y-129380000D02*
X111890000Y-129380000D01*
X119000000Y-47000000D02*
X119000000Y-129500000D01*
X114500000Y-47000000D02*
X119000000Y-47000000D01*
X117380000Y-104380000D02*
X111890000Y-104380000D01*
X118000000Y-104500000D02*
X117500000Y-104500000D01*
X118000000Y-50500000D02*
X118000000Y-104500000D01*
X111000000Y-48500000D02*
X113000000Y-50500000D01*
X113000000Y-50500000D02*
X118000000Y-50500000D01*
X111000000Y-47000000D02*
X111000000Y-48500000D01*
X117500000Y-104500000D02*
X117380000Y-104380000D01*
X115500000Y-51000000D02*
X117000000Y-52500000D01*
X117000000Y-76500000D02*
X114120000Y-79380000D01*
X111500000Y-51000000D02*
X115500000Y-51000000D01*
X114120000Y-79380000D02*
X111890000Y-79380000D01*
X107500000Y-47000000D02*
X111500000Y-51000000D01*
X117000000Y-52500000D02*
X117000000Y-76500000D01*
X104390000Y-47000000D02*
X111850000Y-54460000D01*
X104000000Y-47000000D02*
X104390000Y-47000000D01*
X93340000Y-129340000D02*
X87080000Y-129340000D01*
X93500000Y-129500000D02*
X93340000Y-129340000D01*
X94000000Y-129500000D02*
X93500000Y-129500000D01*
X94000000Y-47000000D02*
X94000000Y-129500000D01*
X89500000Y-47000000D02*
X94000000Y-47000000D01*
X92840000Y-104340000D02*
X87080000Y-104340000D01*
X93000000Y-49500000D02*
X93000000Y-104500000D01*
X87000000Y-49500000D02*
X93000000Y-49500000D01*
X93000000Y-104500000D02*
X92840000Y-104340000D01*
X88420000Y-78000000D02*
X87080000Y-79340000D01*
X92000000Y-51000000D02*
X92000000Y-78000000D01*
X92000000Y-78000000D02*
X88420000Y-78000000D01*
X86500000Y-51000000D02*
X92000000Y-51000000D01*
X82500000Y-47000000D02*
X86500000Y-51000000D01*
X79620000Y-47000000D02*
X87040000Y-54420000D01*
X79000000Y-47000000D02*
X79620000Y-47000000D01*
X68920000Y-129420000D02*
X62040000Y-129420000D01*
X69000000Y-129500000D02*
X68920000Y-129420000D01*
X69000000Y-47000000D02*
X69000000Y-129500000D01*
X64500000Y-47000000D02*
X69000000Y-47000000D01*
X67920000Y-104420000D02*
X62040000Y-104420000D01*
X68000000Y-104500000D02*
X67920000Y-104420000D01*
X68000000Y-51500000D02*
X68000000Y-104500000D01*
X62000000Y-49500000D02*
X66000000Y-49500000D01*
X61000000Y-47000000D02*
X61000000Y-48500000D01*
X61000000Y-48500000D02*
X62000000Y-49500000D01*
X66000000Y-49500000D02*
X68000000Y-51500000D01*
X63460000Y-78000000D02*
X62040000Y-79420000D01*
X67000000Y-78000000D02*
X63460000Y-78000000D01*
X66000000Y-51000000D02*
X67000000Y-52000000D01*
X67000000Y-52000000D02*
X67000000Y-78000000D01*
X61500000Y-51000000D02*
X66000000Y-51000000D01*
X57500000Y-47000000D02*
X61500000Y-51000000D01*
X54500000Y-47000000D02*
X62000000Y-54500000D01*
X54000000Y-47000000D02*
X54500000Y-47000000D01*
X86000000Y-47000000D02*
X86000000Y-48500000D01*
X86000000Y-48500000D02*
X87000000Y-49500000D01*
%TD*%
M02*
